<?xml version="1.0" encoding="UTF-8"?>
<!DOCTYPE svg PUBLIC "-//W3C//DTD SVG 1.1//EN" "http://www.w3.org/Graphics/SVG/1.1/DTD/svg11.dtd">
<svg xmlns="http://www.w3.org/2000/svg" version="1.1" width="322px" height="322px" style="shape-rendering:geometricPrecision; text-rendering:geometricPrecision; image-rendering:optimizeQuality; fill-rule:evenodd; clip-rule:evenodd" xmlns:xlink="http://www.w3.org/1999/xlink">
<g><path style="opacity:1" fill="#fdfdfd" d="M -0.5,-0.5 C 106.833,-0.5 214.167,-0.5 321.5,-0.5C 321.5,106.833 321.5,214.167 321.5,321.5C 214.167,321.5 106.833,321.5 -0.5,321.5C -0.5,214.167 -0.5,106.833 -0.5,-0.5 Z"/></g>
<g><path style="opacity:1" fill="#f39fa2" d="M 114.5,18.5 C 114.5,24.8333 114.5,31.1667 114.5,37.5C 115.5,37.5 116.5,37.5 117.5,37.5C 116.432,38.4345 115.099,38.7678 113.5,38.5C 113.176,31.6457 113.509,24.979 114.5,18.5 Z"/></g>
<g><path style="opacity:1" fill="#e73d40" d="M 114.5,18.5 C 117.85,18.335 121.183,18.5017 124.5,19C 125.056,19.3826 125.389,19.8826 125.5,20.5C 125.5,23.1667 125.5,25.8333 125.5,28.5C 123.18,30.2261 120.513,30.8928 117.5,30.5C 117.5,32.8333 117.5,35.1667 117.5,37.5C 116.5,37.5 115.5,37.5 114.5,37.5C 114.5,31.1667 114.5,24.8333 114.5,18.5 Z"/></g>
<g><path style="opacity:1" fill="#ee757a" d="M 190.5,18.5 C 188.55,23.7351 187.883,29.4018 188.5,35.5C 188.167,35.5 187.833,35.5 187.5,35.5C 187.5,32.1667 187.5,28.8333 187.5,25.5C 187.5,22.8333 187.5,20.1667 187.5,17.5C 188.791,17.2627 189.791,17.596 190.5,18.5 Z"/></g>
<g><path style="opacity:1" fill="#e52c31" d="M 190.5,18.5 C 190.5,20.1667 190.5,21.8333 190.5,23.5C 191.5,23.5 192.5,23.5 193.5,23.5C 193.5,24.5 193.5,25.5 193.5,26.5C 192.5,26.5 191.5,26.5 190.5,26.5C 190.198,29.0593 190.532,31.3926 191.5,33.5C 192.806,34.4674 193.473,35.8007 193.5,37.5C 192.5,37.5 191.5,37.5 190.5,37.5C 189.5,37.1667 188.833,36.5 188.5,35.5C 187.883,29.4018 188.55,23.7351 190.5,18.5 Z"/></g>
<g><path style="opacity:1" fill="#e63439" d="M 202.5,23.5 C 203.167,23.5 203.833,23.5 204.5,23.5C 206.371,27.8662 207.038,32.5329 206.5,37.5C 205.5,37.5 204.5,37.5 203.5,37.5C 203.5,33.8333 203.5,30.1667 203.5,26.5C 201.5,26.5 199.5,26.5 197.5,26.5C 197.5,30.1667 197.5,33.8333 197.5,37.5C 196.5,37.5 195.5,37.5 194.5,37.5C 194.5,31.1667 194.5,24.8333 194.5,18.5C 195.5,18.5 196.5,18.5 197.5,18.5C 197.5,20.1667 197.5,21.8333 197.5,23.5C 199.167,23.5 200.833,23.5 202.5,23.5 Z"/></g>
<g><path style="opacity:1" fill="#c9e2d1" d="M 204.5,23.5 C 203.833,23.5 203.167,23.5 202.5,23.5C 201.432,22.5655 200.099,22.2322 198.5,22.5C 198.5,20.5 198.5,18.5 198.5,16.5C 199.697,13.1056 201.697,12.6056 204.5,15C 203.207,15.49 201.873,15.6567 200.5,15.5C 200.5,16.5 200.5,17.5 200.5,18.5C 202.39,18.7035 203.89,18.0368 205,16.5C 205.703,18.9291 205.537,21.2625 204.5,23.5 Z"/></g>
<g><path style="opacity:1" fill="#f3a1a4" d="M 198.5,16.5 C 198.5,18.5 198.5,20.5 198.5,22.5C 200.099,22.2322 201.432,22.5655 202.5,23.5C 200.833,23.5 199.167,23.5 197.5,23.5C 197.5,21.8333 197.5,20.1667 197.5,18.5C 196.5,18.5 195.5,18.5 194.5,18.5C 194.5,24.8333 194.5,31.1667 194.5,37.5C 195.5,37.5 196.5,37.5 197.5,37.5C 195.167,38.8333 192.833,38.8333 190.5,37.5C 191.5,37.5 192.5,37.5 193.5,37.5C 193.473,35.8007 192.806,34.4674 191.5,33.5C 193.344,31.7211 194.01,29.3878 193.5,26.5C 193.5,25.5 193.5,24.5 193.5,23.5C 192.5,23.5 191.5,23.5 190.5,23.5C 190.5,21.8333 190.5,20.1667 190.5,18.5C 191.161,19.7175 191.828,21.0508 192.5,22.5C 192.833,21.8333 193.167,21.1667 193.5,20.5C 191.833,17.8333 190.167,15.1667 188.5,12.5C 190.049,6.23356 193.549,4.90022 199,8.5C 199.063,10.3793 198.563,12.2127 197.5,14C 197.528,15.0698 197.861,15.9032 198.5,16.5 Z"/></g>
<g><path style="opacity:1" fill="#fbdfe0" d="M 191.5,15.5 C 193.263,14.6655 194.93,15.1655 196.5,17C 194.505,17.6128 192.838,17.1128 191.5,15.5 Z"/></g>
<g><path style="opacity:1" fill="#fdf4f5" d="M 191.5,8.5 C 193.564,8.68701 195.564,9.18701 197.5,10C 196.197,13.044 193.864,14.2107 190.5,13.5C 190.629,11.7839 190.962,10.1172 191.5,8.5 Z"/></g>
<g><path style="opacity:1" fill="#fcddde" d="M 117.5,21.5 C 119.167,21.5 120.833,21.5 122.5,21.5C 122.5,23.5 122.5,25.5 122.5,27.5C 120.833,27.5 119.167,27.5 117.5,27.5C 117.5,25.5 117.5,23.5 117.5,21.5 Z"/></g>
<g><path style="opacity:1" fill="#e52f34" d="M 127.5,23.5 C 129.833,23.5 132.167,23.5 134.5,23.5C 134.5,24.5 134.5,25.5 134.5,26.5C 133.167,26.5 131.833,26.5 130.5,26.5C 129.834,29.6893 129.167,33.0227 128.5,36.5C 127.508,32.2172 127.174,27.8839 127.5,23.5 Z"/></g>
<g><path style="opacity:1" fill="#e73739" d="M 158.5,23.5 C 159.5,23.8333 160.167,24.5 160.5,25.5C 160.5,29.5 160.5,33.5 160.5,37.5C 159.5,37.5 158.5,37.5 157.5,37.5C 157.5,33.8333 157.5,30.1667 157.5,26.5C 155.833,26.5 154.167,26.5 152.5,26.5C 152.125,30.4425 151.125,34.1091 149.5,37.5C 149.5,32.8333 149.5,28.1667 149.5,23.5C 152.5,23.5 155.5,23.5 158.5,23.5 Z"/></g>
<g><path style="opacity:1" fill="#e73e40" d="M 165.5,33.5 C 167.607,34.4682 169.941,34.8016 172.5,34.5C 172.5,35.5 172.5,36.5 172.5,37.5C 169.833,37.5 167.167,37.5 164.5,37.5C 163.5,37.1667 162.833,36.5 162.5,35.5C 162.5,32.1667 162.5,28.8333 162.5,25.5C 162.611,24.8826 162.944,24.3826 163.5,24C 166.5,23.3333 169.5,23.3333 172.5,24C 173.444,26.7191 173.777,29.5525 173.5,32.5C 170.615,32.1936 167.948,32.5269 165.5,33.5 Z"/></g>
<g><path style="opacity:1" fill="#e84041" d="M 186.5,25.5 C 186.5,27.5 186.5,29.5 186.5,31.5C 183.5,31.5 180.5,31.5 177.5,31.5C 177.263,32.791 177.596,33.791 178.5,34.5C 180.833,34.5 183.167,34.5 185.5,34.5C 185.5,35.5 185.5,36.5 185.5,37.5C 182.482,37.6646 179.482,37.498 176.5,37C 174.955,35.1781 174.288,33.0114 174.5,30.5C 174.288,27.9886 174.955,25.8219 176.5,24C 179.5,23.3333 182.5,23.3333 185.5,24C 186.056,24.3826 186.389,24.8826 186.5,25.5 Z"/></g>
<g><path style="opacity:1" fill="#f5abae" d="M 126.5,22.5 C 132.358,22.1778 138.025,22.5111 143.5,23.5C 141.5,23.5 139.5,23.5 137.5,23.5C 136.596,24.209 136.263,25.209 136.5,26.5C 135.833,26.5 135.167,26.5 134.5,26.5C 134.5,25.5 134.5,24.5 134.5,23.5C 132.167,23.5 129.833,23.5 127.5,23.5C 126.833,23.5 126.5,23.1667 126.5,22.5 Z"/></g>
<g><path style="opacity:1" fill="#ef7f84" d="M 158.5,23.5 C 155.5,23.5 152.5,23.5 149.5,23.5C 149.5,28.1667 149.5,32.8333 149.5,37.5C 148.517,33.7016 148.183,29.7016 148.5,25.5C 148.5,24.5 148.5,23.5 148.5,22.5C 152.042,22.1872 155.375,22.5206 158.5,23.5 Z"/></g>
<g><path style="opacity:1" fill="#ec6469" d="M 137.5,23.5 C 139.156,25.0603 141.156,26.0603 143.5,26.5C 141.167,26.5 138.833,26.5 136.5,26.5C 136.263,25.209 136.596,24.209 137.5,23.5 Z"/></g>
<g><path style="opacity:1" fill="#f4a3a6" d="M 147.5,25.5 C 147.833,25.5 148.167,25.5 148.5,25.5C 148.183,29.7016 148.517,33.7016 149.5,37.5C 151.125,34.1091 152.125,30.4425 152.5,26.5C 152.5,30.5 152.5,34.5 152.5,38.5C 147.637,38.8195 142.97,38.4861 138.5,37.5C 141.5,37.5 144.5,37.5 147.5,37.5C 147.5,33.5 147.5,29.5 147.5,25.5 Z"/></g>
<g><path style="opacity:1" fill="#f18d91" d="M 160.5,25.5 C 161.167,25.5 161.833,25.5 162.5,25.5C 162.5,28.8333 162.5,32.1667 162.5,35.5C 161.833,36.1667 161.167,36.8333 160.5,37.5C 160.5,33.5 160.5,29.5 160.5,25.5 Z"/></g>
<g><path style="opacity:1" fill="#fad8d9" d="M 165.5,26.5 C 167.288,26.2148 168.955,26.5481 170.5,27.5C 169.667,27.8333 168.833,28.1667 168,28.5C 166.624,28.3158 165.791,27.6491 165.5,26.5 Z"/></g>
<g><path style="opacity:1" fill="#fad9da" d="M 178.5,26.5 C 180.288,26.2148 181.955,26.5481 183.5,27.5C 182.667,27.8333 181.833,28.1667 181,28.5C 179.624,28.3158 178.791,27.6491 178.5,26.5 Z"/></g>
<g><path style="opacity:1" fill="#fde0e0" d="M 193.5,26.5 C 194.01,29.3878 193.344,31.7211 191.5,33.5C 190.532,31.3926 190.198,29.0593 190.5,26.5C 191.5,26.5 192.5,26.5 193.5,26.5 Z"/></g>
<g><path style="opacity:1" fill="#ef787c" d="M 143.5,26.5 C 144.404,27.209 144.737,28.209 144.5,29.5C 142.167,29.5 139.833,29.5 137.5,29.5C 139.844,29.0603 141.844,28.0603 143.5,26.5 Z"/></g>
<g><path style="opacity:1" fill="#ef7376" d="M 125.5,20.5 C 126.338,20.8417 126.672,21.5084 126.5,22.5C 126.5,23.1667 126.833,23.5 127.5,23.5C 127.174,27.8839 127.508,32.2172 128.5,36.5C 129.167,33.0227 129.834,29.6893 130.5,26.5C 130.5,30.1667 130.5,33.8333 130.5,37.5C 129.167,37.5 127.833,37.5 126.5,37.5C 126.81,34.2869 126.477,31.2869 125.5,28.5C 125.5,25.8333 125.5,23.1667 125.5,20.5 Z"/></g>
<g><path style="opacity:1" fill="#f0898d" d="M 186.5,31.5 C 183.523,31.9016 180.857,32.9016 178.5,34.5C 177.596,33.791 177.263,32.791 177.5,31.5C 180.5,31.5 183.5,31.5 186.5,31.5 Z"/></g>
<g><path style="opacity:1" fill="#facdcf" d="M 186.5,25.5 C 186.833,25.5 187.167,25.5 187.5,25.5C 187.5,28.8333 187.5,32.1667 187.5,35.5C 186.833,36.1667 186.167,36.8333 185.5,37.5C 185.5,36.5 185.5,35.5 185.5,34.5C 183.167,34.5 180.833,34.5 178.5,34.5C 180.857,32.9016 183.523,31.9016 186.5,31.5C 186.5,29.5 186.5,27.5 186.5,25.5 Z"/></g>
<g><path style="opacity:1" fill="#e6383c" d="M 137.5,23.5 C 139.5,23.5 141.5,23.5 143.5,23.5C 145.062,23.7329 146.395,24.3995 147.5,25.5C 147.5,29.5 147.5,33.5 147.5,37.5C 144.5,37.5 141.5,37.5 138.5,37.5C 135.024,35.1409 134.691,32.4742 137.5,29.5C 139.833,29.5 142.167,29.5 144.5,29.5C 144.737,28.209 144.404,27.209 143.5,26.5C 141.156,26.0603 139.156,25.0603 137.5,23.5 Z"/></g>
<g><path style="opacity:1" fill="#f8b3b4" d="M 139.5,31.5 C 141.167,31.5 142.833,31.5 144.5,31.5C 144.5,32.5 144.5,33.5 144.5,34.5C 142.396,34.7989 140.396,34.4656 138.5,33.5C 138.863,32.8165 139.196,32.1499 139.5,31.5 Z"/></g>
<g><path style="opacity:1" fill="#f6aeb0" d="M 165.5,33.5 C 168.167,33.5 170.833,33.5 173.5,33.5C 173.5,35.1667 173.5,36.8333 173.5,38.5C 170.287,38.81 167.287,38.4767 164.5,37.5C 167.167,37.5 169.833,37.5 172.5,37.5C 172.5,36.5 172.5,35.5 172.5,34.5C 169.941,34.8016 167.607,34.4682 165.5,33.5 Z"/></g>
<g><path style="opacity:1" fill="#b2b2b2" d="M 136.5,40.5 C 138.167,40.5 139.833,40.5 141.5,40.5C 141.785,42.288 141.452,43.9547 140.5,45.5C 139.5,44.1667 138.5,44.1667 137.5,45.5C 136.548,43.9547 136.215,42.288 136.5,40.5 Z"/></g>
<g><path style="opacity:1" fill="#ababab" d="M 203.5,40.5 C 204.833,40.5 206.167,40.5 207.5,40.5C 207.55,42.5901 206.55,43.9234 204.5,44.5C 203.571,43.3112 203.238,41.9778 203.5,40.5 Z"/></g>
<g><path style="opacity:1" fill="#bbbbbb" d="M 114.5,40.5 C 116.167,40.5 117.833,40.5 119.5,40.5C 119.5,42.1667 119.5,43.8333 119.5,45.5C 117.833,45.5 116.167,45.5 114.5,45.5C 114.5,43.8333 114.5,42.1667 114.5,40.5 Z"/></g>
<g><path style="opacity:1" fill="#b0b0b0" d="M 158.5,40.5 C 162.676,39.8307 164.009,41.3307 162.5,45C 161.207,45.49 159.873,45.6567 158.5,45.5C 158.5,43.8333 158.5,42.1667 158.5,40.5 Z"/></g>
<g><path style="opacity:1" fill="#bbbbbb" d="M 180.5,40.5 C 181.931,40.8807 182.764,41.8807 183,43.5C 183.249,42.376 183.749,41.376 184.5,40.5C 185.452,42.0453 185.785,43.712 185.5,45.5C 181.5,46.1667 179.833,44.5 180.5,40.5 Z"/></g>
<g><path style="opacity:1" fill="#736f77" d="M 219.5,39.5 C 219.735,38.9033 220.235,38.5699 221,38.5C 231.418,42.5873 239.752,49.254 246,58.5C 247.079,61.0627 247.579,63.7294 247.5,66.5C 246.448,66.6495 245.448,66.4828 244.5,66C 235.568,57.573 227.235,48.7397 219.5,39.5 Z"/></g>
<g><path style="opacity:1" fill="#706c74" d="M 80.5,61.5 C 78.071,60.7352 76.7377,59.0685 76.5,56.5C 81.0525,49.4486 87.0525,43.9486 94.5,40C 96.8212,39.1635 99.1546,38.8301 101.5,39C 95.3675,47.2995 88.3675,54.7995 80.5,61.5 Z"/></g>
<g><path style="opacity:1" fill="#77727b" d="M 63.5,77.5 C 62.3501,78.8502 61.6834,78.6836 61.5,77C 62.4929,74.5472 62.6595,72.0472 62,69.5C 60.8035,72.0891 59.8035,74.7558 59,77.5C 58.3333,74.8333 58.3333,72.1667 59,69.5C 60.7068,67.0912 61.5402,64.4245 61.5,61.5C 64.3078,56.0683 67.9744,51.235 72.5,47C 73.6001,46.5683 74.2668,47.0683 74.5,48.5C 71.4219,58.4026 67.7552,68.0692 63.5,77.5 Z"/></g>
<g><path style="opacity:1" fill="#918d94" d="M 76.5,56.5 C 76.7377,59.0685 78.071,60.7352 80.5,61.5C 78.215,63.1182 76.215,65.1182 74.5,67.5C 72.9471,63.3515 73.6138,59.6848 76.5,56.5 Z"/></g>
<g><path style="opacity:1" fill="#78737c" d="M 262.5,70.5 C 262.639,83.7146 261.806,83.7146 260,70.5C 259.085,69.6721 258.419,68.6721 258,67.5C 257.578,69.4257 256.411,70.4257 254.5,70.5C 251.271,63.4893 248.604,56.156 246.5,48.5C 246.833,47.8333 247.167,47.1667 247.5,46.5C 255.04,52.9123 260.04,60.9123 262.5,70.5 Z"/></g>
<g><path style="opacity:1" fill="#8f8b93" d="M 262.5,70.5 C 263.794,74.7327 263.794,79.0661 262.5,83.5C 261.5,83.5 260.5,83.5 259.5,83.5C 258.653,78.8139 256.987,74.4806 254.5,70.5C 256.411,70.4257 257.578,69.4257 258,67.5C 258.419,68.6721 259.085,69.6721 260,70.5C 261.806,83.7146 262.639,83.7146 262.5,70.5 Z"/></g>
<g><path style="opacity:1" fill="#c1bfc3" d="M 268.5,66.5 C 267.514,70.97 267.181,75.6367 267.5,80.5C 266.186,75.6523 266.186,70.6523 267.5,65.5C 268.107,65.6236 268.44,65.9569 268.5,66.5 Z"/></g>
<g><path style="opacity:1" fill="#858189" d="M 53.5,80.5 C 52.0845,87.0278 50.7512,93.6945 49.5,100.5C 48.4928,97.678 47.6595,94.678 47,91.5C 46.6667,92.8333 46.3333,94.1667 46,95.5C 45.3333,96.8333 44.6667,96.8333 44,95.5C 43.502,92.5184 43.3354,89.5184 43.5,86.5C 44.8682,79.0971 47.8682,72.4304 52.5,66.5C 53.4933,71.1196 53.8266,75.7863 53.5,80.5 Z"/></g>
<g><path style="opacity:1" fill="#9a969d" d="M 61.5,61.5 C 61.5402,64.4245 60.7068,67.0912 59,69.5C 58.3333,72.1667 58.3333,74.8333 59,77.5C 59.8035,74.7558 60.8035,72.0891 62,69.5C 62.6595,72.0472 62.4929,74.5472 61.5,77C 61.6834,78.6836 62.3501,78.8502 63.5,77.5C 62.8333,79.1667 62.1667,80.8333 61.5,82.5C 60.5,82.5 59.5,82.5 58.5,82.5C 56.5088,74.9792 57.5088,67.9792 61.5,61.5 Z"/></g>
<g><path style="opacity:1" fill="#8c888f" d="M 268.5,66.5 C 277.119,77.0582 279.786,89.0582 276.5,102.5C 275.883,102.611 275.383,102.944 275,103.5C 274.667,102.167 274.333,100.833 274,99.5C 273.751,100.624 273.251,101.624 272.5,102.5C 272.167,102.167 271.833,101.833 271.5,101.5C 271.066,97.549 270.066,93.8824 268.5,90.5C 268.167,87.1667 267.833,83.8333 267.5,80.5C 267.181,75.6367 267.514,70.97 268.5,66.5 Z"/></g>
<g><path style="opacity:1" fill="#dfdddf" d="M 259.5,83.5 C 260.5,83.5 261.5,83.5 262.5,83.5C 263.811,87.4547 265.644,91.1214 268,94.5C 268.49,93.2068 268.657,91.8734 268.5,90.5C 270.066,93.8824 271.066,97.549 271.5,101.5C 271.833,101.833 272.167,102.167 272.5,102.5C 273.251,101.624 273.751,100.624 274,99.5C 274.333,100.833 274.667,102.167 275,103.5C 275.383,102.944 275.883,102.611 276.5,102.5C 275.969,104.544 274.802,106.211 273,107.5C 268.755,99.3428 264.255,91.3428 259.5,83.5 Z"/></g>
<g><path style="opacity:1" fill="#c52c2f" d="M 121.5,92.5 C 125.5,92.5 129.5,92.5 133.5,92.5C 133.168,128.004 133.502,163.337 134.5,198.5C 134.833,202.167 136.833,204.167 140.5,204.5C 143.962,205.482 147.629,205.815 151.5,205.5C 151.5,208.167 151.5,210.833 151.5,213.5C 131.5,213.5 111.5,213.5 91.5,213.5C 91.5,210.833 91.5,208.167 91.5,205.5C 95.0419,205.813 98.3752,205.479 101.5,204.5C 105.899,203.722 107.899,201.056 107.5,196.5C 107.5,195.833 107.5,195.167 107.5,194.5C 107.5,193.5 107.5,192.5 107.5,191.5C 107.5,189.5 107.5,187.5 107.5,185.5C 107.5,185.167 107.5,184.833 107.5,184.5C 107.5,163.5 107.5,142.5 107.5,121.5C 101.45,123.933 95.2832,126.267 89,128.5C 85.9203,126.256 84.5869,123.256 85,119.5C 99.02,112.976 111.187,103.976 121.5,92.5 Z"/></g>
<g><path style="opacity:1" fill="#cc5054" d="M 121.5,92.5 C 125.634,91.5151 129.968,91.1818 134.5,91.5C 134.5,121.167 134.5,150.833 134.5,180.5C 134.5,181.833 134.5,183.167 134.5,184.5C 134.5,189.167 134.5,193.833 134.5,198.5C 133.502,163.337 133.168,128.004 133.5,92.5C 129.5,92.5 125.5,92.5 121.5,92.5 Z"/></g>
<g><path style="opacity:1" fill="#e21d26" d="M 123.5,94.5 C 126.167,94.5 128.833,94.5 131.5,94.5C 131.333,130.168 131.5,165.835 132,201.5C 136.522,206.896 142.355,208.896 149.5,207.5C 149.5,208.833 149.5,210.167 149.5,211.5C 130.833,211.5 112.167,211.5 93.5,211.5C 93.5,210.167 93.5,208.833 93.5,207.5C 97.9362,207.79 102.27,207.29 106.5,206C 108.049,204.786 109.215,203.286 110,201.5C 110.833,173.161 110.667,144.827 109.5,116.5C 103.769,119.185 98.1023,122.018 92.5,125C 91.2068,125.49 89.8734,125.657 88.5,125.5C 88.2148,123.712 88.5481,122.045 89.5,120.5C 102.873,114.456 114.206,105.789 123.5,94.5 Z"/></g>
<g><path style="opacity:1" fill="#dcdadd" d="M 53.5,80.5 C 53.162,85.1859 52.9953,89.8525 53,94.5C 55.6815,90.8092 57.5148,86.8092 58.5,82.5C 59.5,82.5 60.5,82.5 61.5,82.5C 55.2812,92.3333 50.1146,102.667 46,113.5C 46.663,110.482 46.4963,107.482 45.5,104.5C 46.29,103.391 46.79,102.058 47,100.5C 48.0712,103.113 48.9045,103.113 49.5,100.5C 50.7512,93.6945 52.0845,87.0278 53.5,80.5 Z"/></g>
<g><path style="opacity:1" fill="#b3b0b5" d="M 43.5,86.5 C 43.3354,89.5184 43.502,92.5184 44,95.5C 44.6667,96.8333 45.3333,96.8333 46,95.5C 46.3333,94.1667 46.6667,92.8333 47,91.5C 47.6595,94.678 48.4928,97.678 49.5,100.5C 48.9045,103.113 48.0712,103.113 47,100.5C 46.79,102.058 46.29,103.391 45.5,104.5C 42.7176,98.6697 42.0509,92.6697 43.5,86.5 Z"/></g>
<g><path style="opacity:1" fill="#bcb8bc" d="M 287.5,100.5 C 287.5,103.167 287.5,105.833 287.5,108.5C 285.409,108.318 283.409,108.652 281.5,109.5C 280.516,106.572 280.183,103.572 280.5,100.5C 281.706,87.5662 284.039,87.5662 287.5,100.5 Z"/></g>
<g><path style="opacity:1" fill="#b9b6ba" d="M 40.5,97.5 C 40.5,101.833 40.5,106.167 40.5,110.5C 34.0062,110.352 31.6728,107.019 33.5,100.5C 33.8568,96.7604 35.1901,93.427 37.5,90.5C 39.0818,92.5771 40.0818,94.9104 40.5,97.5 Z"/></g>
<g><path style="opacity:1" fill="#c62e31" d="M 193.5,131.5 C 191.69,134.145 190.69,137.145 190.5,140.5C 192.786,140.405 194.786,139.738 196.5,138.5C 198.764,137.781 201.097,137.448 203.5,137.5C 205.833,137.5 208.167,137.5 210.5,137.5C 211.833,137.5 213.167,137.5 214.5,137.5C 215.609,137.557 216.609,137.89 217.5,138.5C 220.756,139.252 223.756,140.586 226.5,142.5C 227.833,144.5 229.5,146.167 231.5,147.5C 232.604,149.389 233.937,151.055 235.5,152.5C 235.989,153.995 236.655,155.329 237.5,156.5C 237.263,157.791 237.596,158.791 238.5,159.5C 238.366,161.292 238.699,162.958 239.5,164.5C 239.808,173.267 239.142,181.934 237.5,190.5C 233.319,201.685 225.652,209.685 214.5,214.5C 213.167,214.5 211.833,214.5 210.5,214.5C 202.466,214.698 194.466,214.365 186.5,213.5C 177.134,209.637 170.134,203.137 165.5,194C 163.51,188.817 161.843,183.65 160.5,178.5C 159.92,174.19 159.586,169.857 159.5,165.5C 159.26,159.773 159.593,154.106 160.5,148.5C 161.924,146.485 162.59,144.152 162.5,141.5C 163.664,138.186 164.83,134.852 166,131.5C 168.118,126.906 170.952,122.906 174.5,119.5C 176.587,118.415 177.92,116.749 178.5,114.5C 191.583,99.9093 207.916,91.5759 227.5,89.5C 228.826,92.001 229.326,94.6677 229,97.5C 212.408,103.926 200.575,115.26 193.5,131.5 Z"/></g>
<g><path style="opacity:1" fill="#e21d26" d="M 221.5,92.5 C 222.833,92.5 224.167,92.5 225.5,92.5C 225.762,93.9778 225.429,95.3112 224.5,96.5C 202.726,105.922 190.059,122.256 186.5,145.5C 191.315,143.507 196.315,142.007 201.5,141C 224.329,139.496 235.995,150.163 236.5,173C 235.489,201.488 220.822,214.821 192.5,213C 179.394,208.893 170.561,200.393 166,187.5C 155.184,138.442 173.684,106.775 221.5,92.5 Z"/></g>
<g><path style="opacity:1" fill="#dbd8db" d="M 40.5,97.5 C 41.4902,103.645 41.8235,109.978 41.5,116.5C 38.8704,115.572 36.2037,114.572 33.5,113.5C 32.2006,109.036 32.2006,104.702 33.5,100.5C 31.6728,107.019 34.0062,110.352 40.5,110.5C 40.5,106.167 40.5,101.833 40.5,97.5 Z"/></g>
<g><path style="opacity:1" fill="#d8d6d8" d="M 280.5,100.5 C 280.183,103.572 280.516,106.572 281.5,109.5C 283.409,108.652 285.409,108.318 287.5,108.5C 287.5,105.833 287.5,103.167 287.5,100.5C 288.647,104.646 288.814,108.98 288,113.5C 285.153,114.506 282.319,115.506 279.5,116.5C 279.179,110.974 279.512,105.64 280.5,100.5 Z"/></g>
<g><path style="opacity:1" fill="#d56667" d="M 178.5,114.5 C 177.92,116.749 176.587,118.415 174.5,119.5C 175.08,117.251 176.413,115.585 178.5,114.5 Z"/></g>
<g><path style="opacity:1" fill="#dbd8da" d="M 283.5,140.5 C 283.204,144.093 282.204,144.759 280.5,142.5C 280.016,138.768 279.349,135.101 278.5,131.5C 278.5,130.833 278.5,130.167 278.5,129.5C 278.5,127.833 278.5,126.167 278.5,124.5C 280.827,124.753 282.827,124.086 284.5,122.5C 284.833,123.167 285.167,123.833 285.5,124.5C 283.87,127.143 282.203,129.809 280.5,132.5C 280.905,135.505 281.905,138.171 283.5,140.5 Z"/></g>
<g><path style="opacity:1" fill="#efcdd0" d="M 278.5,129.5 C 278.5,130.167 278.5,130.833 278.5,131.5C 265.025,127.548 251.358,126.548 237.5,128.5C 236.081,127.549 234.415,127.216 232.5,127.5C 247.862,124.44 263.195,125.107 278.5,129.5 Z"/></g>
<g><path style="opacity:1" fill="#bfbbbe" d="M 293.5,136.5 C 293.5,134.5 293.5,132.5 293.5,130.5C 288.389,130.29 285.389,132.624 284.5,137.5C 284.932,131.301 287.432,126.301 292,122.5C 292.772,122.645 293.439,122.978 294,123.5C 294.814,128.02 294.647,132.354 293.5,136.5 Z"/></g>
<g><path style="opacity:1" fill="#dfe2e2" d="M 42.5,138.5 C 41.3592,141.64 41.1925,144.973 42,148.5C 54.5956,167.975 54.0956,168.308 40.5,149.5C 40.6653,145.818 40.4986,142.152 40,138.5C 39.6667,140.833 39.3333,143.167 39,145.5C 37.9614,144.756 37.4614,143.756 37.5,142.5C 37.5,141.167 37.5,139.833 37.5,138.5C 39.0265,137.508 39.6932,136.008 39.5,134C 38.9967,130.328 37.6633,126.994 35.5,124C 35.8333,123.5 36.1667,123 36.5,122.5C 38.3817,123.093 40.2151,123.76 42,124.5C 42.4992,129.155 42.6658,133.821 42.5,138.5 Z"/></g>
<g><path style="opacity:1" fill="#d399b4" d="M 232.5,127.5 C 234.415,127.216 236.081,127.549 237.5,128.5C 227.812,129.729 218.812,132.729 210.5,137.5C 208.167,137.5 205.833,137.5 203.5,137.5C 212.644,133.006 222.311,129.673 232.5,127.5 Z"/></g>
<g><path style="opacity:1" fill="#daa2b7" d="M 234.5,132.5 C 239.363,132.181 244.03,132.514 248.5,133.5C 237.657,132.856 227.323,134.523 217.5,138.5C 216.609,137.89 215.609,137.557 214.5,137.5C 220.755,134.603 227.422,132.936 234.5,132.5 Z"/></g>
<g><path style="opacity:1" fill="#aaa3a9" d="M 37.5,138.5 C 37.5,139.833 37.5,141.167 37.5,142.5C 36.4217,140.461 35.4217,138.294 34.5,136C 32.1873,135.338 29.854,134.838 27.5,134.5C 27.5,135.5 27.5,136.5 27.5,137.5C 26.5139,133.03 26.1805,128.363 26.5,123.5C 28.7224,123.178 30.5557,123.845 32,125.5C 33.8853,129.923 35.7186,134.256 37.5,138.5 Z"/></g>
<g><path style="opacity:1" fill="#fdf8f8" d="M 278.5,131.5 C 279.349,135.101 280.016,138.768 280.5,142.5C 280.5,146.833 280.5,151.167 280.5,155.5C 279.566,156.568 279.232,157.901 279.5,159.5C 278.596,160.209 278.263,161.209 278.5,162.5C 277.883,162.611 277.383,162.944 277,163.5C 263.016,149.946 246.183,142.946 226.5,142.5C 225.402,141.603 225.402,140.77 226.5,140C 233.354,139.305 240.187,139.472 247,140.5C 248.167,140.333 249.333,140.167 250.5,140C 250.167,139.667 249.833,139.333 249.5,139C 238.874,137.224 228.207,137.058 217.5,138.5C 227.323,134.523 237.657,132.856 248.5,133.5C 258.971,134.43 268.971,137.43 278.5,142.5C 278.833,142.167 279.167,141.833 279.5,141.5C 265.481,132.906 250.481,129.906 234.5,132.5C 227.422,132.936 220.755,134.603 214.5,137.5C 213.167,137.5 211.833,137.5 210.5,137.5C 218.812,132.729 227.812,129.729 237.5,128.5C 251.358,126.548 265.025,127.548 278.5,131.5 Z"/></g>
<g><path style="opacity:1" fill="#f3d4d4" d="M 234.5,132.5 C 250.481,129.906 265.481,132.906 279.5,141.5C 279.167,141.833 278.833,142.167 278.5,142.5C 268.971,137.43 258.971,134.43 248.5,133.5C 244.03,132.514 239.363,132.181 234.5,132.5 Z"/></g>
<g><path style="opacity:1" fill="#f1c9ca" d="M 193.5,131.5 C 193.326,133.861 192.993,136.194 192.5,138.5C 193.833,138.5 195.167,138.5 196.5,138.5C 194.786,139.738 192.786,140.405 190.5,140.5C 190.69,137.145 191.69,134.145 193.5,131.5 Z"/></g>
<g><path style="opacity:1" fill="#e3b1bc" d="M 226.5,142.5 C 223.756,140.586 220.756,139.252 217.5,138.5C 228.207,137.058 238.874,137.224 249.5,139C 249.833,139.333 250.167,139.667 250.5,140C 249.333,140.167 248.167,140.333 247,140.5C 240.187,139.472 233.354,139.305 226.5,140C 225.402,140.77 225.402,141.603 226.5,142.5 Z"/></g>
<g><path style="opacity:1" fill="#837c84" d="M 37.5,142.5 C 37.4614,143.756 37.9614,144.756 39,145.5C 39.3333,143.167 39.6667,140.833 40,138.5C 40.4986,142.152 40.6653,145.818 40.5,149.5C 40.5,150.833 40.5,152.167 40.5,153.5C 40.366,155.292 40.6993,156.958 41.5,158.5C 41.5,158.833 41.5,159.167 41.5,159.5C 40.596,160.209 40.2627,161.209 40.5,162.5C 37.0722,156.505 33.2388,150.505 29,144.5C 28.338,142.187 27.838,139.854 27.5,137.5C 27.5,136.5 27.5,135.5 27.5,134.5C 29.854,134.838 32.1873,135.338 34.5,136C 35.4217,138.294 36.4217,140.461 37.5,142.5 Z"/></g>
<g><path style="opacity:1" fill="#e19293" d="M 162.5,141.5 C 162.59,144.152 161.924,146.485 160.5,148.5C 160.41,145.848 161.076,143.515 162.5,141.5 Z"/></g>
<g><path style="opacity:1" fill="#f1cecf" d="M 226.5,142.5 C 246.183,142.946 263.016,149.946 277,163.5C 277.383,162.944 277.883,162.611 278.5,162.5C 278.125,164.698 277.458,166.698 276.5,168.5C 276.731,165.215 275.397,162.715 272.5,161C 261.804,152.068 249.471,146.901 235.5,145.5C 233.667,145.585 232.334,146.252 231.5,147.5C 229.5,146.167 227.833,144.5 226.5,142.5 Z"/></g>
<g><path style="opacity:1" fill="#665f68" d="M 282.5,180.5 C 282.078,178.655 282.912,176.988 285,175.5C 286.626,172.942 287.626,170.275 288,167.5C 285.069,173.255 281.236,178.255 276.5,182.5C 276.676,179.273 277.343,176.273 278.5,173.5C 278.833,173.5 279.167,173.5 279.5,173.5C 279.81,174.738 280.31,174.738 281,173.5C 281.352,171.753 281.852,170.086 282.5,168.5C 285.962,158.904 290.962,150.238 297.5,142.5C 298.757,155.009 295.59,166.343 288,176.5C 286.568,178.439 284.735,179.772 282.5,180.5 Z"/></g>
<g><path style="opacity:1" fill="#fef9f8" d="M 276.5,168.5 C 275.313,172.263 273.98,175.93 272.5,179.5C 271.89,180.391 271.557,181.391 271.5,182.5C 270.094,182.973 269.427,183.973 269.5,185.5C 267.316,189.881 264.65,193.881 261.5,197.5C 257.958,192.407 254.458,187.074 251,181.5C 247.965,178.13 244.632,175.13 241,172.5C 240.333,170.5 240.333,168.5 241,166.5C 244.775,168.974 248.275,171.807 251.5,175C 252.167,175.667 252.833,175.667 253.5,175C 249.667,170.265 245.001,166.765 239.5,164.5C 238.699,162.958 238.366,161.292 238.5,159.5C 238.56,158.957 238.893,158.624 239.5,158.5C 247.933,162.471 255.433,167.805 262,174.5C 260.763,171.224 258.597,168.391 255.5,166C 249.889,162.029 243.889,158.862 237.5,156.5C 236.655,155.329 235.989,153.995 235.5,152.5C 236.601,151.402 237.934,151.235 239.5,152C 245.61,154.402 251.61,156.735 257.5,159C 249.606,153.675 240.939,149.842 231.5,147.5C 232.334,146.252 233.667,145.585 235.5,145.5C 249.471,146.901 261.804,152.068 272.5,161C 275.397,162.715 276.731,165.215 276.5,168.5 Z"/></g>
<g><path style="opacity:1" fill="#888188" d="M 293.5,136.5 C 292.446,144.731 288.613,151.397 282,156.5C 281.188,160.689 281.355,164.689 282.5,168.5C 281.852,170.086 281.352,171.753 281,173.5C 280.31,174.738 279.81,174.738 279.5,173.5C 280.241,167.529 280.575,161.529 280.5,155.5C 280.5,151.167 280.5,146.833 280.5,142.5C 282.204,144.759 283.204,144.093 283.5,140.5C 284.11,139.609 284.443,138.609 284.5,137.5C 285.389,132.624 288.389,130.29 293.5,130.5C 293.5,132.5 293.5,134.5 293.5,136.5 Z"/></g>
<g><path style="opacity:1" fill="#ecc0c1" d="M 231.5,147.5 C 240.939,149.842 249.606,153.675 257.5,159C 251.61,156.735 245.61,154.402 239.5,152C 237.934,151.235 236.601,151.402 235.5,152.5C 233.937,151.055 232.604,149.389 231.5,147.5 Z"/></g>
<g><path style="opacity:1" fill="#e7f2ef" d="M 40.5,153.5 C 45.6205,160.123 51.2872,166.289 57.5,172C 55.3687,171.602 53.3687,170.602 51.5,169C 47.9349,165.604 44.6015,162.104 41.5,158.5C 40.6993,156.958 40.366,155.292 40.5,153.5 Z"/></g>
<g><path style="opacity:1" fill="#f3d0cb" d="M 237.5,156.5 C 243.889,158.862 249.889,162.029 255.5,166C 258.597,168.391 260.763,171.224 262,174.5C 255.433,167.805 247.933,162.471 239.5,158.5C 238.893,158.624 238.56,158.957 238.5,159.5C 237.596,158.791 237.263,157.791 237.5,156.5 Z"/></g>
<g><path style="opacity:1" fill="#675f68" d="M 40.5,165.5 C 41.1667,167.5 41.8333,169.5 42.5,171.5C 43.5005,176.835 44.5005,182.168 45.5,187.5C 44.6554,186.329 43.9887,184.995 43.5,183.5C 39.8555,178.337 36.3555,173.004 33,167.5C 33.7045,171.576 35.5379,175.243 38.5,178.5C 37.7666,179.087 36.7666,179.087 35.5,178.5C 33.5389,176.037 31.3722,173.703 29,171.5C 23.7521,162.096 21.9188,152.096 23.5,141.5C 26.1955,145.03 28.6955,148.696 31,152.5C 34.0365,158.253 36.7031,164.253 39,170.5C 39.3333,170.833 39.6667,171.167 40,171.5C 40.4955,169.527 40.6621,167.527 40.5,165.5 Z"/></g>
<g><path style="opacity:1" fill="#b44649" d="M 41.5,159.5 C 42.1098,160.391 42.4431,161.391 42.5,162.5C 42.6287,164.216 42.962,165.883 43.5,167.5C 42.5655,168.568 42.2322,169.901 42.5,171.5C 41.8333,169.5 41.1667,167.5 40.5,165.5C 40.5,164.5 40.5,163.5 40.5,162.5C 40.2627,161.209 40.596,160.209 41.5,159.5 Z"/></g>
<g><path style="opacity:1" fill="#e6f0ef" d="M 42.5,162.5 C 47.2046,167.207 52.2046,171.54 57.5,175.5C 61.9807,178.242 66.6474,180.742 71.5,183C 61.4877,180.069 52.6544,174.903 45,167.5C 44.6012,167.728 44.4346,168.062 44.5,168.5C 43.8333,168.5 43.5,168.167 43.5,167.5C 42.962,165.883 42.6287,164.216 42.5,162.5 Z"/></g>
<g><path style="opacity:1" fill="#8b4c53" d="M 280.5,155.5 C 280.575,161.529 280.241,167.529 279.5,173.5C 279.167,173.5 278.833,173.5 278.5,173.5C 278.998,168.848 279.331,164.181 279.5,159.5C 279.232,157.901 279.566,156.568 280.5,155.5 Z"/></g>
<g><path style="opacity:1" fill="#b5ddd4" d="M 42.5,138.5 C 45.2612,145.612 48.9279,152.279 53.5,158.5C 52.475,158.897 52.3083,159.563 53,160.5C 54.5,162 56,163.5 57.5,165C 56.6919,165.308 56.0253,165.808 55.5,166.5C 58.354,169.188 61.354,171.688 64.5,174C 62.7756,174.448 62.109,175.282 62.5,176.5C 61.1667,175.833 59.8333,175.167 58.5,174.5C 57.8933,174.624 57.56,174.957 57.5,175.5C 52.2046,171.54 47.2046,167.207 42.5,162.5C 42.4431,161.391 42.1098,160.391 41.5,159.5C 41.5,159.167 41.5,158.833 41.5,158.5C 44.6015,162.104 47.9349,165.604 51.5,169C 53.3687,170.602 55.3687,171.602 57.5,172C 51.2872,166.289 45.6205,160.123 40.5,153.5C 40.5,152.167 40.5,150.833 40.5,149.5C 54.0956,168.308 54.5956,167.975 42,148.5C 41.1925,144.973 41.3592,141.64 42.5,138.5 Z"/></g>
<g><path style="opacity:1" fill="#80528a" d="M 159.5,165.5 C 159.586,169.857 159.92,174.19 160.5,178.5C 157.779,178.963 155.112,179.629 152.5,180.5C 152.953,179.542 153.619,178.708 154.5,178C 153.5,177.667 152.5,177.333 151.5,177C 154.146,174.198 156.146,171.032 157.5,167.5C 157.833,166.5 158.5,165.833 159.5,165.5 Z"/></g>
<g><path style="opacity:1" fill="#908c92" d="M 43.5,183.5 C 40.197,182.849 37.5303,181.182 35.5,178.5C 36.7666,179.087 37.7666,179.087 38.5,178.5C 35.5379,175.243 33.7045,171.576 33,167.5C 36.3555,173.004 39.8555,178.337 43.5,183.5 Z"/></g>
<g><path style="opacity:1" fill="#8f8b91" d="M 282.5,180.5 C 280.167,182.167 278.167,184.167 276.5,186.5C 276.5,185.167 276.5,183.833 276.5,182.5C 281.236,178.255 285.069,173.255 288,167.5C 287.626,170.275 286.626,172.942 285,175.5C 282.912,176.988 282.078,178.655 282.5,180.5 Z"/></g>
<g><path style="opacity:1" fill="#9bc4cb" d="M 53.5,158.5 C 60.7511,167.112 69.4177,173.779 79.5,178.5C 79.5,178.833 79.5,179.167 79.5,179.5C 79.0618,179.435 78.7284,179.601 78.5,180C 79.5505,181.385 80.8839,182.385 82.5,183C 80.1088,183.691 80.1088,184.691 82.5,186C 90.0326,188.037 89.6993,189.537 81.5,190.5C 69.2281,188.522 57.8948,184.189 47.5,177.5C 46.8902,176.609 46.5569,175.609 46.5,174.5C 54.0005,180.127 62.3338,184.293 71.5,187C 72.8333,187.667 74.1667,187.667 75.5,187C 63.6131,183.728 53.2798,177.895 44.5,169.5C 44.5,169.167 44.5,168.833 44.5,168.5C 44.4346,168.062 44.6012,167.728 45,167.5C 52.6544,174.903 61.4877,180.069 71.5,183C 66.6474,180.742 61.9807,178.242 57.5,175.5C 57.56,174.957 57.8933,174.624 58.5,174.5C 59.8333,175.167 61.1667,175.833 62.5,176.5C 62.109,175.282 62.7756,174.448 64.5,174C 61.354,171.688 58.354,169.188 55.5,166.5C 56.0253,165.808 56.6919,165.308 57.5,165C 56,163.5 54.5,162 53,160.5C 52.3083,159.563 52.475,158.897 53.5,158.5 Z"/></g>
<g><path style="opacity:1" fill="#6e6871" d="M 265.5,211.5 C 265.5,210.833 265.5,210.167 265.5,209.5C 265.992,207.181 266.992,205.181 268.5,203.5C 269.728,202.694 270.728,201.694 271.5,200.5C 273.877,198.772 275.544,196.439 276.5,193.5C 281.747,186.583 287.747,180.249 294.5,174.5C 294.833,175.167 295.167,175.833 295.5,176.5C 292.576,188.86 286.242,199.027 276.5,207C 273.242,209.548 269.575,211.048 265.5,211.5 Z"/></g>
<g><path style="opacity:1" fill="#736b73" d="M 45.5,187.5 C 50.5367,199.571 56.5367,211.238 63.5,222.5C 62.8333,222.5 62.1667,222.5 61.5,222.5C 59.5113,219.194 57.5113,215.861 55.5,212.5C 41.4716,207.305 31.9716,197.638 27,183.5C 26.0187,181.04 25.1854,178.54 24.5,176C 24.8333,175.167 25.1667,174.333 25.5,173.5C 33.934,181.429 41.434,190.095 48,199.5C 47.4969,195.475 46.6636,191.475 45.5,187.5 Z"/></g>
<g><path style="opacity:1" fill="#c52c2f" d="M 196.5,146.5 C 201.765,145.571 206.265,146.904 210,150.5C 210.483,151.448 210.649,152.448 210.5,153.5C 211.5,153.5 212.5,153.5 213.5,153.5C 216.614,169.643 216.114,185.643 212,201.5C 207.983,208.138 202.15,210.304 194.5,208C 190.542,204.579 187.708,200.412 186,195.5C 182.853,180.911 182.686,166.245 185.5,151.5C 188.994,149.234 192.66,147.567 196.5,146.5 Z"/></g>
<g><path style="opacity:1" fill="#c97d9b" d="M 200.5,149.5 C 196.798,151.58 192.965,153.58 189,155.5C 187.666,161.826 189.499,163.159 194.5,159.5C 200.21,158.676 205.543,157.343 210.5,155.5C 211.404,156.209 211.737,157.209 211.5,158.5C 212.451,159.919 212.784,161.585 212.5,163.5C 213.833,170.5 213.833,177.5 212.5,184.5C 212.5,180.167 212.5,175.833 212.5,171.5C 204.475,170.312 196.475,170.312 188.5,171.5C 187.508,175.783 187.174,180.116 187.5,184.5C 186.185,174.3 186.351,163.967 188,153.5C 191.671,150.58 195.837,149.246 200.5,149.5 Z"/></g>
<g><path style="opacity:1" fill="#f0dde6" d="M 196.5,166.5 C 200.846,166.334 205.179,166.501 209.5,167C 210.624,167.249 211.624,167.749 212.5,168.5C 205.197,168.398 197.864,168.731 190.5,169.5C 189.5,169.333 188.5,169.167 187.5,169C 190.628,168.159 193.628,167.325 196.5,166.5 Z"/></g>
<g><path style="opacity:1" fill="#eacedb" d="M 212.5,163.5 C 209.742,164.818 206.576,165.485 203,165.5C 197.812,165.879 192.645,166.046 187.5,166C 195.747,163.397 204.081,162.564 212.5,163.5 Z"/></g>
<g><path style="opacity:1" fill="#ecd4e0" d="M 211.5,158.5 C 211.5,159.5 211.5,160.5 211.5,161.5C 203.28,161.155 195.28,161.989 187.5,164C 195.141,160.837 203.141,159.004 211.5,158.5 Z"/></g>
<g><path style="opacity:1" fill="#d3a9c2" d="M 200.5,149.5 C 201.833,149.5 203.167,149.5 204.5,149.5C 200.171,151.912 195.505,154.078 190.5,156C 195.238,154.874 200.072,153.707 205,152.5C 205.833,152.667 206.667,152.833 207.5,153C 204.524,153.705 201.858,154.871 199.5,156.5C 196.985,157.063 195.318,158.063 194.5,159.5C 189.499,163.159 187.666,161.826 189,155.5C 192.965,153.58 196.798,151.58 200.5,149.5 Z"/></g>
<g><path style="opacity:1" fill="#eedae4" d="M 210.5,155.5 C 205.543,157.343 200.21,158.676 194.5,159.5C 195.318,158.063 196.985,157.063 199.5,156.5C 203.135,155.886 206.802,155.552 210.5,155.5 Z"/></g>
<g><path style="opacity:1" fill="#c787a9" d="M 204.5,149.5 C 207.404,150.614 209.404,152.614 210.5,155.5C 206.802,155.552 203.135,155.886 199.5,156.5C 201.858,154.871 204.524,153.705 207.5,153C 206.667,152.833 205.833,152.667 205,152.5C 200.072,153.707 195.238,154.874 190.5,156C 195.505,154.078 200.171,151.912 204.5,149.5 Z"/></g>
<g><path style="opacity:1" fill="#f4ccc4" d="M 239.5,164.5 C 245.001,166.765 249.667,170.265 253.5,175C 252.833,175.667 252.167,175.667 251.5,175C 248.275,171.807 244.775,168.974 241,166.5C 240.333,168.5 240.333,170.5 241,172.5C 244.632,175.13 247.965,178.13 251,181.5C 254.458,187.074 257.958,192.407 261.5,197.5C 261.573,199.027 260.906,200.027 259.5,200.5C 255.55,190.272 249.384,181.605 241,174.5C 240.333,176.5 240.333,178.5 241,180.5C 245.226,183.662 247.893,187.662 249,192.5C 246.325,188.995 243.491,185.661 240.5,182.5C 239.359,184.421 239.192,186.421 240,188.5C 242.575,191.319 244.908,194.319 247,197.5C 248.631,201.751 250.464,205.751 252.5,209.5C 251.833,210.833 250.833,211.833 249.5,212.5C 248.188,203.874 244.688,196.207 239,189.5C 238.617,190.056 238.117,190.389 237.5,190.5C 239.142,181.934 239.808,173.267 239.5,164.5 Z"/></g>
<g><path style="opacity:1" fill="#c1bfc3" d="M 275.5,191.5 C 275.328,192.492 275.662,193.158 276.5,193.5C 275.544,196.439 273.877,198.772 271.5,200.5C 272.075,197.088 273.408,194.088 275.5,191.5 Z"/></g>
<g><path style="opacity:1" fill="#865c63" d="M 276.5,182.5 C 276.5,183.833 276.5,185.167 276.5,186.5C 275.699,188.042 275.366,189.708 275.5,191.5C 273.408,194.088 272.075,197.088 271.5,200.5C 270.728,201.694 269.728,202.694 268.5,203.5C 271.191,196.414 273.858,189.414 276.5,182.5 Z"/></g>
<g><path style="opacity:1" fill="#c02429" d="M 279.5,159.5 C 279.331,164.181 278.998,168.848 278.5,173.5C 277.343,176.273 276.676,179.273 276.5,182.5C 273.858,189.414 271.191,196.414 268.5,203.5C 266.992,205.181 265.992,207.181 265.5,209.5C 260.416,217.333 255.083,225 249.5,232.5C 248.5,232.833 247.833,233.5 247.5,234.5C 242.437,239.568 237.104,244.235 231.5,248.5C 227.809,250.541 224.142,252.541 220.5,254.5C 215.728,256.72 211.062,259.22 206.5,262C 201.892,263.035 197.559,264.535 193.5,266.5C 191.035,266.767 188.701,267.434 186.5,268.5C 172.056,270.55 157.723,270.883 143.5,269.5C 139.79,267.864 135.79,267.198 131.5,267.5C 129.708,267.634 128.042,267.301 126.5,266.5C 125.791,265.596 124.791,265.263 123.5,265.5C 115.254,262.377 107.254,258.71 99.5,254.5C 97.0616,252.733 94.395,251.399 91.5,250.5C 84.5606,244.899 77.894,238.899 71.5,232.5C 69.1829,228.854 66.5162,225.52 63.5,222.5C 56.5367,211.238 50.5367,199.571 45.5,187.5C 44.5005,182.168 43.5005,176.835 42.5,171.5C 42.2322,169.901 42.5655,168.568 43.5,167.5C 43.5,168.167 43.8333,168.5 44.5,168.5C 44.5,168.833 44.5,169.167 44.5,169.5C 44.7959,171.403 45.4625,173.07 46.5,174.5C 46.5569,175.609 46.8902,176.609 47.5,177.5C 47.8925,179.284 48.5592,180.95 49.5,182.5C 50.1667,183.5 50.8333,184.5 51.5,185.5C 51.9321,186.71 52.5987,187.71 53.5,188.5C 53.5,189.167 53.5,189.833 53.5,190.5C 51.9907,189.141 51.324,189.641 51.5,192C 67.832,224.988 93.832,246.322 129.5,256C 181.513,266.705 224.346,251.871 258,211.5C 264.904,201.427 270.737,190.76 275.5,179.5C 274.575,178.438 273.575,178.438 272.5,179.5C 273.98,175.93 275.313,172.263 276.5,168.5C 277.458,166.698 278.125,164.698 278.5,162.5C 278.263,161.209 278.596,160.209 279.5,159.5 Z"/></g>
<g><path style="opacity:1" fill="#a9cad3" d="M 49.5,182.5 C 55.3838,184.857 61.3838,187.024 67.5,189C 72.7297,190.546 78.0631,191.38 83.5,191.5C 85.4982,192.148 87.4982,192.981 89.5,194C 85.6437,194.177 81.977,194.677 78.5,195.5C 70.3032,194.69 62.3032,193.023 54.5,190.5C 54.1667,190.5 53.8333,190.5 53.5,190.5C 53.5,189.833 53.5,189.167 53.5,188.5C 59.959,190.632 66.6257,191.799 73.5,192C 66.0314,190.12 58.6981,187.953 51.5,185.5C 50.8333,184.5 50.1667,183.5 49.5,182.5 Z"/></g>
<g><path style="opacity:1" fill="#e3252b" d="M 53.5,190.5 C 53.8333,190.5 54.1667,190.5 54.5,190.5C 55.1667,191.833 55.8333,193.167 56.5,194.5C 56.5,195.167 56.8333,195.5 57.5,195.5C 67.2861,211.225 80.2861,223.559 96.5,232.5C 96.9731,233.906 97.9731,234.573 99.5,234.5C 105.215,238.521 111.549,241.188 118.5,242.5C 122.085,244.806 126.085,246.139 130.5,246.5C 130.833,246.5 131.167,246.5 131.5,246.5C 136.556,248.347 141.889,249.514 147.5,250C 155.5,250.667 163.5,250.667 171.5,250C 173.382,249.802 175.048,249.302 176.5,248.5C 178.5,248.5 180.5,248.5 182.5,248.5C 184.898,248.741 186.898,248.074 188.5,246.5C 191.969,246.453 195.302,245.787 198.5,244.5C 201.157,244.065 203.491,243.065 205.5,241.5C 222.496,235.337 237.163,225.671 249.5,212.5C 250.833,211.833 251.833,210.833 252.5,209.5C 255.185,206.81 257.518,203.81 259.5,200.5C 260.906,200.027 261.573,199.027 261.5,197.5C 264.65,193.881 267.316,189.881 269.5,185.5C 270.906,185.027 271.573,184.027 271.5,182.5C 271.557,181.391 271.89,180.391 272.5,179.5C 273.575,178.438 274.575,178.438 275.5,179.5C 270.737,190.76 264.904,201.427 258,211.5C 224.346,251.871 181.513,266.705 129.5,256C 93.832,246.322 67.832,224.988 51.5,192C 51.324,189.641 51.9907,189.141 53.5,190.5 Z"/></g>
<g><path style="opacity:1" fill="#acc3d4" d="M 56.5,194.5 C 63.1599,195.166 69.8265,195.832 76.5,196.5C 78.6965,196.495 80.6965,196.162 82.5,195.5C 87.9127,195.229 93.2461,195.729 98.5,197C 97.8333,197.333 97.1667,197.667 96.5,198C 96.7284,198.399 97.0618,198.565 97.5,198.5C 85.7509,201.617 73.7509,202.117 61.5,200C 68.8333,199.667 76.1667,199.333 83.5,199C 74.6965,198.554 66.0299,197.388 57.5,195.5C 56.8333,195.5 56.5,195.167 56.5,194.5 Z"/></g>
<g><path style="opacity:1" fill="#94a9c7" d="M 85.5,190.5 C 89.4994,191.035 93.4994,191.701 97.5,192.5C 96.624,193.251 95.624,193.751 94.5,194C 97.2017,194.607 99.8684,194.44 102.5,193.5C 103.167,193.667 103.833,193.833 104.5,194C 103.5,194.333 102.5,194.667 101.5,195C 103.545,195.49 105.545,195.323 107.5,194.5C 107.5,195.167 107.5,195.833 107.5,196.5C 104.167,197.167 100.833,197.833 97.5,198.5C 97.0618,198.565 96.7284,198.399 96.5,198C 97.1667,197.667 97.8333,197.333 98.5,197C 93.2461,195.729 87.9127,195.229 82.5,195.5C 81.1667,195.5 79.8333,195.5 78.5,195.5C 81.977,194.677 85.6437,194.177 89.5,194C 87.4982,192.981 85.4982,192.148 83.5,191.5C 84.4916,191.672 85.1583,191.338 85.5,190.5 Z"/></g>
<g><path style="opacity:1" fill="#ecf2f3" d="M 54.5,190.5 C 62.3032,193.023 70.3032,194.69 78.5,195.5C 79.8333,195.5 81.1667,195.5 82.5,195.5C 80.6965,196.162 78.6965,196.495 76.5,196.5C 69.8265,195.832 63.1599,195.166 56.5,194.5C 55.8333,193.167 55.1667,191.833 54.5,190.5 Z"/></g>
<g><path style="opacity:1" fill="#edf2f3" d="M 51.5,185.5 C 58.6981,187.953 66.0314,190.12 73.5,192C 66.6257,191.799 59.959,190.632 53.5,188.5C 52.5987,187.71 51.9321,186.71 51.5,185.5 Z"/></g>
<g><path style="opacity:1" fill="#4a67a0" d="M 87.5,182.5 C 93.9991,184.533 100.666,185.533 107.5,185.5C 107.5,187.5 107.5,189.5 107.5,191.5C 99.8042,190.284 92.8042,187.45 86.5,183C 86.7284,182.601 87.0618,182.435 87.5,182.5 Z"/></g>
<g><path style="opacity:1" fill="#7594b7" d="M 79.5,179.5 C 82.3973,180.129 85.064,181.129 87.5,182.5C 87.0618,182.435 86.7284,182.601 86.5,183C 92.8042,187.45 99.8042,190.284 107.5,191.5C 107.5,192.5 107.5,193.5 107.5,194.5C 105.545,195.323 103.545,195.49 101.5,195C 102.5,194.667 103.5,194.333 104.5,194C 103.833,193.833 103.167,193.667 102.5,193.5C 99.8684,194.44 97.2017,194.607 94.5,194C 95.624,193.751 96.624,193.251 97.5,192.5C 93.4994,191.701 89.4994,191.035 85.5,190.5C 84.1667,190.5 82.8333,190.5 81.5,190.5C 89.6993,189.537 90.0326,188.037 82.5,186C 80.1088,184.691 80.1088,183.691 82.5,183C 80.8839,182.385 79.5505,181.385 78.5,180C 78.7284,179.601 79.0618,179.435 79.5,179.5 Z"/></g>
<g><path style="opacity:1" fill="#e3ebed" d="M 47.5,177.5 C 57.8948,184.189 69.2281,188.522 81.5,190.5C 82.8333,190.5 84.1667,190.5 85.5,190.5C 85.1583,191.338 84.4916,191.672 83.5,191.5C 78.0631,191.38 72.7297,190.546 67.5,189C 61.3838,187.024 55.3838,184.857 49.5,182.5C 48.5592,180.95 47.8925,179.284 47.5,177.5 Z"/></g>
<g><path style="opacity:1" fill="#f18587" d="M 271.5,182.5 C 271.573,184.027 270.906,185.027 269.5,185.5C 269.427,183.973 270.094,182.973 271.5,182.5 Z"/></g>
<g><path style="opacity:1" fill="#fef7f5" d="M 259.5,200.5 C 257.518,203.81 255.185,206.81 252.5,209.5C 250.464,205.751 248.631,201.751 247,197.5C 244.908,194.319 242.575,191.319 240,188.5C 239.192,186.421 239.359,184.421 240.5,182.5C 243.491,185.661 246.325,188.995 249,192.5C 247.893,187.662 245.226,183.662 241,180.5C 240.333,178.5 240.333,176.5 241,174.5C 249.384,181.605 255.55,190.272 259.5,200.5 Z"/></g>
<g><path style="opacity:1" fill="#fdfafa" d="M 160.5,178.5 C 161.843,183.65 163.51,188.817 165.5,194C 170.134,203.137 177.134,209.637 186.5,213.5C 187.514,214.674 188.847,215.34 190.5,215.5C 190.577,216.75 191.244,217.583 192.5,218C 198.891,218.758 205.224,218.424 211.5,217C 212.571,216.148 213.571,215.315 214.5,214.5C 225.652,209.685 233.319,201.685 237.5,190.5C 238.117,190.389 238.617,190.056 239,189.5C 244.688,196.207 248.188,203.874 249.5,212.5C 237.163,225.671 222.496,235.337 205.5,241.5C 202.654,241.552 200.32,242.552 198.5,244.5C 195.302,245.787 191.969,246.453 188.5,246.5C 186.102,246.259 184.102,246.926 182.5,248.5C 180.5,248.5 178.5,248.5 176.5,248.5C 161.424,248.922 146.424,248.256 131.5,246.5C 131.167,246.5 130.833,246.5 130.5,246.5C 126.767,244.589 122.767,243.256 118.5,242.5C 111.549,241.188 105.215,238.521 99.5,234.5C 99.0269,233.094 98.0269,232.427 96.5,232.5C 80.2861,223.559 67.2861,211.225 57.5,195.5C 66.0299,197.388 74.6965,198.554 83.5,199C 76.1667,199.333 68.8333,199.667 61.5,200C 73.7509,202.117 85.7509,201.617 97.5,198.5C 100.833,197.833 104.167,197.167 107.5,196.5C 107.899,201.056 105.899,203.722 101.5,204.5C 97.8333,204.5 94.1667,204.5 90.5,204.5C 89.5184,207.962 89.185,211.629 89.5,215.5C 93.1667,215.5 96.8333,215.5 100.5,215.5C 101.263,216.268 102.263,216.768 103.5,217C 108.167,217.167 112.833,217.333 117.5,217.5C 124.73,217.667 131.73,217.001 138.5,215.5C 143.363,215.819 148.03,215.486 152.5,214.5C 152.5,211.167 152.5,207.833 152.5,204.5C 148.5,204.5 144.5,204.5 140.5,204.5C 136.833,204.167 134.833,202.167 134.5,198.5C 134.5,193.833 134.5,189.167 134.5,184.5C 140.657,183.794 146.657,182.46 152.5,180.5C 155.112,179.629 157.779,178.963 160.5,178.5 Z"/></g>
<g><path style="opacity:1" fill="#6e5795" d="M 157.5,167.5 C 156.146,171.032 154.146,174.198 151.5,177C 152.5,177.333 153.5,177.667 154.5,178C 153.619,178.708 152.953,179.542 152.5,180.5C 146.657,182.46 140.657,183.794 134.5,184.5C 134.5,183.167 134.5,181.833 134.5,180.5C 142.324,176.422 149.991,172.089 157.5,167.5 Z"/></g>
<g><path style="opacity:1" fill="#becbdc" d="M 79.5,179.5 C 79.5,179.167 79.5,178.833 79.5,178.5C 84.5543,179.684 89.5543,181.184 94.5,183C 98.8134,183.735 103.147,184.235 107.5,184.5C 107.5,184.833 107.5,185.167 107.5,185.5C 100.666,185.533 93.9991,184.533 87.5,182.5C 85.064,181.129 82.3973,180.129 79.5,179.5 Z"/></g>
<g><path style="opacity:1" fill="#e8f1f1" d="M 44.5,169.5 C 53.2798,177.895 63.6131,183.728 75.5,187C 74.1667,187.667 72.8333,187.667 71.5,187C 62.3338,184.293 54.0005,180.127 46.5,174.5C 45.4625,173.07 44.7959,171.403 44.5,169.5 Z"/></g>
<g><path style="opacity:1" fill="#fefbfb" d="M 212.5,184.5 C 212.367,190.861 210.867,196.861 208,202.5C 198.889,208.121 192.555,205.788 189,195.5C 188.452,191.83 187.952,188.163 187.5,184.5C 187.174,180.116 187.508,175.783 188.5,171.5C 196.475,170.312 204.475,170.312 212.5,171.5C 212.5,175.833 212.5,180.167 212.5,184.5 Z"/></g>
<g><path style="opacity:1" fill="#c5393e" d="M 90.5,204.5 C 94.1667,204.5 97.8333,204.5 101.5,204.5C 98.3752,205.479 95.0419,205.813 91.5,205.5C 91.5,208.167 91.5,210.833 91.5,213.5C 111.5,213.5 131.5,213.5 151.5,213.5C 151.5,210.833 151.5,208.167 151.5,205.5C 147.629,205.815 143.962,205.482 140.5,204.5C 144.5,204.5 148.5,204.5 152.5,204.5C 152.5,207.833 152.5,211.167 152.5,214.5C 131.833,214.5 111.167,214.5 90.5,214.5C 90.5,211.167 90.5,207.833 90.5,204.5 Z"/></g>
<g><path style="opacity:1" fill="#d38b8e" d="M 90.5,204.5 C 90.5,207.833 90.5,211.167 90.5,214.5C 111.167,214.5 131.833,214.5 152.5,214.5C 148.03,215.486 143.363,215.819 138.5,215.5C 125.833,215.5 113.167,215.5 100.5,215.5C 96.8333,215.5 93.1667,215.5 89.5,215.5C 89.185,211.629 89.5184,207.962 90.5,204.5 Z"/></g>
<g><path style="opacity:1" fill="#c74e4e" d="M 186.5,213.5 C 194.466,214.365 202.466,214.698 210.5,214.5C 204.049,216.72 197.383,217.054 190.5,215.5C 188.847,215.34 187.514,214.674 186.5,213.5 Z"/></g>
<g><path style="opacity:1" fill="#e0dee0" d="M 100.5,215.5 C 113.167,215.5 125.833,215.5 138.5,215.5C 131.73,217.001 124.73,217.667 117.5,217.5C 112.833,217.333 108.167,217.167 103.5,217C 102.263,216.768 101.263,216.268 100.5,215.5 Z"/></g>
<g><path style="opacity:1" fill="#d9d1d3" d="M 210.5,214.5 C 211.833,214.5 213.167,214.5 214.5,214.5C 213.571,215.315 212.571,216.148 211.5,217C 205.224,218.424 198.891,218.758 192.5,218C 191.244,217.583 190.577,216.75 190.5,215.5C 197.383,217.054 204.049,216.72 210.5,214.5 Z"/></g>
<g><path style="opacity:1" fill="#b7b3b7" d="M 61.5,222.5 C 62.1667,222.5 62.8333,222.5 63.5,222.5C 66.5162,225.52 69.1829,228.854 71.5,232.5C 71.5569,233.609 71.8902,234.609 72.5,235.5C 60.4627,234.898 50.6293,229.898 43,220.5C 39.8333,216 36.6667,211.5 33.5,207C 43.0872,210.536 51.7538,215.87 59.5,223C 60.4368,223.692 61.1034,223.525 61.5,222.5 Z"/></g>
<g><path style="opacity:1" fill="#b8b5b8" d="M 247.5,236.5 C 247.5,235.833 247.5,235.167 247.5,234.5C 247.833,233.5 248.5,232.833 249.5,232.5C 253.167,228.5 256.833,224.5 260.5,220.5C 260.369,221.376 260.702,222.043 261.5,222.5C 268.68,216.144 276.513,210.811 285,206.5C 285.5,206.833 286,207.167 286.5,207.5C 278.299,223.712 265.299,233.378 247.5,236.5 Z"/></g>
<g><path style="opacity:1" fill="#896167" d="M 265.5,209.5 C 265.5,210.167 265.5,210.833 265.5,211.5C 263.58,214.339 261.913,217.339 260.5,220.5C 256.833,224.5 253.167,228.5 249.5,232.5C 255.083,225 260.416,217.333 265.5,209.5 Z"/></g>
<g><path style="opacity:1" fill="#a7a7a8" d="M 138.5,228.5 C 140.086,229.413 141.586,229.413 143,228.5C 143.218,231.245 142.718,233.912 141.5,236.5C 140.428,233.796 139.428,231.13 138.5,228.5 Z"/></g>
<g><path style="opacity:1" fill="#bababb" d="M 157.5,230.5 C 158.978,230.238 160.311,230.571 161.5,231.5C 160.173,233.311 159.173,235.311 158.5,237.5C 157.526,235.257 157.192,232.924 157.5,230.5 Z"/></g>
<g><path style="opacity:1" fill="#aaaaab" d="M 163.5,230.5 C 165.302,231.315 166.302,232.815 166.5,235C 165.828,237.39 164.495,237.89 162.5,236.5C 163.025,235.808 163.692,235.308 164.5,235C 162.452,233.774 162.119,232.274 163.5,230.5 Z"/></g>
<g><path style="opacity:1" fill="#bdbdbd" d="M 179.5,228.5 C 181.388,230.988 182.055,233.988 181.5,237.5C 180.5,237.5 179.5,237.5 178.5,237.5C 178.66,235.801 178.494,234.134 178,232.5C 176.149,238.422 173.982,238.755 171.5,233.5C 171.608,232.558 171.941,231.725 172.5,231C 174.5,230.667 176.5,230.333 178.5,230C 179.056,229.617 179.389,229.117 179.5,228.5 Z"/></g>
<g><path style="opacity:1" fill="#f5a5a7" d="M 96.5,232.5 C 98.0269,232.427 99.0269,233.094 99.5,234.5C 97.9731,234.573 96.9731,233.906 96.5,232.5 Z"/></g>
<g><path style="opacity:1" fill="#a7a7a7" d="M 151.5,230.5 C 152.833,230.5 154.167,230.5 155.5,230.5C 155.5,232.5 155.5,234.5 155.5,236.5C 154.167,236.5 152.833,236.5 151.5,236.5C 151.5,234.5 151.5,232.5 151.5,230.5 Z"/></g>
<g><path style="opacity:1" fill="#b6b6b6" d="M 145.5,230.5 C 146.833,230.5 148.167,230.5 149.5,230.5C 149.5,232.833 149.5,235.167 149.5,237.5C 144.813,237.084 143.479,234.751 145.5,230.5 Z"/></g>
<g><path style="opacity:1" fill="#8a7178" d="M 247.5,234.5 C 247.5,235.167 247.5,235.833 247.5,236.5C 244.833,239.833 241.833,242.833 238.5,245.5C 236.313,246.758 233.98,247.758 231.5,248.5C 237.104,244.235 242.437,239.568 247.5,234.5 Z"/></g>
<g><path style="opacity:1" fill="#bbb8bc" d="M 81.5,244.5 C 84.5886,246.925 87.9219,248.925 91.5,250.5C 94.395,251.399 97.0616,252.733 99.5,254.5C 99.3893,255.117 99.056,255.617 98.5,256C 100.32,256.2 101.653,257.034 102.5,258.5C 84.2292,259.613 68.7292,253.613 56,240.5C 55.4092,239.517 55.7425,238.85 57,238.5C 64.5413,240.736 72.0413,243.07 79.5,245.5C 80.4164,245.457 81.0831,245.124 81.5,244.5 Z"/></g>
<g><path style="opacity:1" fill="#bbb7bb" d="M 216.5,259.5 C 217.833,257.833 219.167,256.167 220.5,254.5C 224.142,252.541 227.809,250.541 231.5,248.5C 233.98,247.758 236.313,246.758 238.5,245.5C 238.735,246.097 239.235,246.43 240,246.5C 247.955,242.59 256.288,239.59 265,237.5C 265.833,237.833 266.667,238.167 267.5,238.5C 258.385,246.724 248.052,252.89 236.5,257C 229.835,258.012 223.168,258.845 216.5,259.5 Z"/></g>
<g><path style="opacity:1" fill="#f49698" d="M 205.5,241.5 C 203.491,243.065 201.157,244.065 198.5,244.5C 200.32,242.552 202.654,241.552 205.5,241.5 Z"/></g>
<g><path style="opacity:1" fill="#f8b6b7" d="M 118.5,242.5 C 122.767,243.256 126.767,244.589 130.5,246.5C 126.085,246.139 122.085,244.806 118.5,242.5 Z"/></g>
<g><path style="opacity:1" fill="#8b787f" d="M 71.5,232.5 C 77.894,238.899 84.5606,244.899 91.5,250.5C 87.9219,248.925 84.5886,246.925 81.5,244.5C 78.1667,241.833 75.1667,238.833 72.5,235.5C 71.8902,234.609 71.5569,233.609 71.5,232.5 Z"/></g>
<g><path style="opacity:1" fill="#f07273" d="M 188.5,246.5 C 186.898,248.074 184.898,248.741 182.5,248.5C 184.102,246.926 186.102,246.259 188.5,246.5 Z"/></g>
<g><path style="opacity:1" fill="#fabfbf" d="M 131.5,246.5 C 146.424,248.256 161.424,248.922 176.5,248.5C 175.048,249.302 173.382,249.802 171.5,250C 163.5,250.667 155.5,250.667 147.5,250C 141.889,249.514 136.556,248.347 131.5,246.5 Z"/></g>
<g><path style="opacity:1" fill="#96838a" d="M 99.5,254.5 C 107.254,258.71 115.254,262.377 123.5,265.5C 120.246,265.793 117.246,265.126 114.5,263.5C 110.266,262.383 106.266,260.716 102.5,258.5C 101.653,257.034 100.32,256.2 98.5,256C 99.056,255.617 99.3893,255.117 99.5,254.5 Z"/></g>
<g><path style="opacity:1" fill="#9b848a" d="M 220.5,254.5 C 219.167,256.167 217.833,257.833 216.5,259.5C 213.28,261.02 209.947,262.353 206.5,263.5C 203.009,265.029 199.342,266.029 195.5,266.5C 194.833,266.5 194.167,266.5 193.5,266.5C 197.559,264.535 201.892,263.035 206.5,262C 211.062,259.22 215.728,256.72 220.5,254.5 Z"/></g>
<g><path style="opacity:1" fill="#a3accc" d="M 252.5,264.5 C 252.715,266.179 252.048,267.179 250.5,267.5C 251.463,266.637 251.463,265.97 250.5,265.5C 249.583,266.127 248.583,266.461 247.5,266.5C 248.635,264.787 250.302,264.12 252.5,264.5 Z"/></g>
<g><path style="opacity:1" fill="#bebbbf" d="M 114.5,263.5 C 117.246,265.126 120.246,265.793 123.5,265.5C 124.791,265.263 125.791,265.596 126.5,266.5C 114.937,272.14 102.937,272.973 90.5,269C 89.09,268.632 88.09,267.799 87.5,266.5C 96.5984,265.117 105.598,264.117 114.5,263.5 Z"/></g>
<g><path style="opacity:1" fill="#bfbcc0" d="M 206.5,263.5 C 215.392,264.169 224.392,265.169 233.5,266.5C 230.135,268.677 226.468,270.177 222.5,271C 216.5,271.667 210.5,271.667 204.5,271C 200.89,270.528 197.89,269.028 195.5,266.5C 199.342,266.029 203.009,265.029 206.5,263.5 Z"/></g>
<g><path style="opacity:1" fill="#5a6ba4" d="M 66.5,266.5 C 70.2478,269.041 74.2478,271.041 78.5,272.5C 80.936,273.871 83.6027,274.871 86.5,275.5C 88.1898,275.856 89.1898,276.856 89.5,278.5C 79.9915,276.579 71.3248,272.746 63.5,267C 64.448,266.517 65.448,266.351 66.5,266.5 Z"/></g>
<g><path style="opacity:1" fill="#d46667" d="M 131.5,267.5 C 135.79,267.198 139.79,267.864 143.5,269.5C 141.833,269.5 140.167,269.5 138.5,269.5C 135.933,269.279 133.599,268.612 131.5,267.5 Z"/></g>
<g><path style="opacity:1" fill="#eb5252" d="M 255.5,267.5 C 256.675,267.281 257.675,267.614 258.5,268.5C 249.844,274.498 240.51,279.165 230.5,282.5C 229.761,282.631 229.094,282.464 228.5,282C 229.571,281.148 230.571,280.315 231.5,279.5C 240.051,276.558 248.051,272.558 255.5,267.5 Z"/></g>
<g><path style="opacity:1" fill="#55b076" d="M 50.5,270.5 C 62.4115,276.954 74.7449,282.62 87.5,287.5C 85.9255,288.631 84.2588,288.798 82.5,288C 70.8386,283.999 59.8386,278.666 49.5,272C 50.056,271.617 50.3893,271.117 50.5,270.5 Z"/></g>
<g><path style="opacity:1" fill="#b1b8d4" d="M 78.5,272.5 C 81.716,272.345 84.3826,273.345 86.5,275.5C 83.6027,274.871 80.936,273.871 78.5,272.5 Z"/></g>
<g><path style="opacity:1" fill="#eae0e1" d="M 186.5,268.5 C 184.934,271.741 182.267,273.241 178.5,273C 166.167,273.667 153.833,273.667 141.5,273C 139.574,272.578 138.574,271.411 138.5,269.5C 140.167,269.5 141.833,269.5 143.5,269.5C 157.723,270.883 172.056,270.55 186.5,268.5 Z"/></g>
<g><path style="opacity:1" fill="#5e6ea6" d="M 250.5,267.5 C 242.919,271.961 234.919,275.294 226.5,277.5C 226.414,276.504 226.748,275.671 227.5,275C 234.294,272.436 240.96,269.602 247.5,266.5C 248.583,266.461 249.583,266.127 250.5,265.5C 251.463,265.97 251.463,266.637 250.5,267.5 Z"/></g>
<g><path style="opacity:1" fill="#ebe2e8" d="M 252.5,264.5 C 253.1,265.9 254.1,266.9 255.5,267.5C 248.051,272.558 240.051,276.558 231.5,279.5C 231.167,279.5 230.833,279.5 230.5,279.5C 229.167,278.833 227.833,278.167 226.5,277.5C 234.919,275.294 242.919,271.961 250.5,267.5C 252.048,267.179 252.715,266.179 252.5,264.5 Z"/></g>
<g><path style="opacity:1" fill="#f2e2e5" d="M 66.5,266.5 C 65.448,266.351 64.448,266.517 63.5,267C 71.3248,272.746 79.9915,276.579 89.5,278.5C 89.0825,279.222 88.4158,279.722 87.5,280C 88.056,280.383 88.3893,280.883 88.5,281.5C 77.9157,279.038 68.249,274.705 59.5,268.5C 61.9418,268.881 62.6085,268.214 61.5,266.5C 63.2985,265.212 64.9652,265.212 66.5,266.5 Z"/></g>
<g><path style="opacity:1" fill="#e83e3f" d="M 100.5,274.5 C 102.277,275.6 104.277,276.434 106.5,277C 104.292,277.191 102.292,277.691 100.5,278.5C 99.4192,281.627 98.7526,284.96 98.5,288.5C 98.5,288.833 98.5,289.167 98.5,289.5C 97.7777,290.551 96.7777,291.218 95.5,291.5C 95.8333,288.833 96.1667,286.167 96.5,283.5C 96.6741,281.139 97.0074,278.806 97.5,276.5C 95.3352,276.884 93.6685,276.217 92.5,274.5C 95.089,273.795 97.7557,273.795 100.5,274.5 Z"/></g>
<g><path style="opacity:1" fill="#f8bbb9" d="M 100.5,274.5 C 102.861,274.674 105.194,275.007 107.5,275.5C 107.5,276.5 107.5,277.5 107.5,278.5C 105.167,278.5 102.833,278.5 100.5,278.5C 102.292,277.691 104.292,277.191 106.5,277C 104.277,276.434 102.277,275.6 100.5,274.5 Z"/></g>
<g><path style="opacity:1" fill="#ec5756" d="M 59.5,268.5 C 68.249,274.705 77.9157,279.038 88.5,281.5C 88.2089,282.649 87.3756,283.316 86,283.5C 75.4509,280.308 65.6176,275.642 56.5,269.5C 57.325,268.614 58.325,268.281 59.5,268.5 Z"/></g>
<g><path style="opacity:1" fill="#f39d9b" d="M 211.5,277.5 C 210.167,277.5 209.5,278.167 209.5,279.5C 208.596,278.791 208.263,277.791 208.5,276.5C 209.791,276.263 210.791,276.596 211.5,277.5 Z"/></g>
<g><path style="opacity:1" fill="#f17e7c" d="M 202.5,277.5 C 203.5,277.5 204.5,277.5 205.5,277.5C 205.5,278.833 205.5,280.167 205.5,281.5C 204.5,281.5 203.5,281.5 202.5,281.5C 202.5,280.167 202.5,278.833 202.5,277.5 Z"/></g>
<g><path style="opacity:1" fill="#f5a9a8" d="M 230.5,279.5 C 230.833,279.5 231.167,279.5 231.5,279.5C 230.571,280.315 229.571,281.148 228.5,282C 229.094,282.464 229.761,282.631 230.5,282.5C 229.791,283.404 228.791,283.737 227.5,283.5C 227.088,281.027 228.088,279.694 230.5,279.5 Z"/></g>
<g><path style="opacity:1" fill="#e84142" d="M 211.5,277.5 C 212.612,279.599 213.279,281.933 213.5,284.5C 213.179,287.577 214.179,289.91 216.5,291.5C 215.545,293.71 214.045,294.043 212,292.5C 210.95,288.197 210.116,283.863 209.5,279.5C 209.5,278.167 210.167,277.5 211.5,277.5 Z"/></g>
<g><path style="opacity:1" fill="#f9c0be" d="M 217.5,277.5 C 218.209,276.596 219.209,276.263 220.5,276.5C 220.5,277.5 220.5,278.5 220.5,279.5C 221.833,279.5 223.167,279.5 224.5,279.5C 223.361,282.004 222.694,284.67 222.5,287.5C 219.514,284.938 219.847,282.771 223.5,281C 222.207,280.51 220.873,280.343 219.5,280.5C 219.715,278.821 219.048,277.821 217.5,277.5 Z"/></g>
<g><path style="opacity:1" fill="#ef7d7e" d="M 156.5,283.5 C 157.209,282.596 158.209,282.263 159.5,282.5C 159.822,288.358 159.489,294.025 158.5,299.5C 159.113,293.729 158.446,288.396 156.5,283.5 Z"/></g>
<g><path style="opacity:1" fill="#f8b6b5" d="M 100.5,278.5 C 100.664,281.187 100.497,283.854 100,286.5C 99.7216,287.416 99.2216,288.082 98.5,288.5C 98.7526,284.96 99.4192,281.627 100.5,278.5 Z"/></g>
<g><path style="opacity:1" fill="#f7b6b4" d="M 113.5,284.5 C 114.167,284.833 114.833,285.167 115.5,285.5C 115.737,286.791 115.404,287.791 114.5,288.5C 113.817,286.824 112.483,286.157 110.5,286.5C 111.5,285.833 112.5,285.167 113.5,284.5 Z"/></g>
<g><path style="opacity:1" fill="#54b075" d="M 260.5,270.5 C 264.29,270.008 264.956,270.841 262.5,273C 252.496,278.997 241.996,283.831 231,287.5C 230.5,287.167 230,286.833 229.5,286.5C 237.233,283.298 244.9,279.798 252.5,276C 255.407,274.391 258.073,272.558 260.5,270.5 Z"/></g>
<g><path style="opacity:1" fill="#eb5351" d="M 113.5,284.5 C 112.5,285.167 111.5,285.833 110.5,286.5C 109.662,286.842 109.328,287.508 109.5,288.5C 109.028,290.531 108.028,292.198 106.5,293.5C 104.8,289.927 105.467,286.761 108.5,284C 110.387,283.22 112.054,283.387 113.5,284.5 Z"/></g>
<g><path style="opacity:1" fill="#f5aaa9" d="M 178.5,281.5 C 179.451,282.919 179.784,284.585 179.5,286.5C 181.415,286.216 183.081,286.549 184.5,287.5C 182.5,287.5 180.5,287.5 178.5,287.5C 178.5,285.5 178.5,283.5 178.5,281.5 Z"/></g>
<g><path style="opacity:1" fill="#e73b3d" d="M 217.5,277.5 C 219.048,277.821 219.715,278.821 219.5,280.5C 220.873,280.343 222.207,280.51 223.5,281C 219.847,282.771 219.514,284.938 222.5,287.5C 223.335,288.943 224.668,289.943 226.5,290.5C 224.305,291.769 222.139,291.769 220,290.5C 218.896,286.816 217.73,283.15 216.5,279.5C 216.543,278.584 216.876,277.917 217.5,277.5 Z"/></g>
<g><path style="opacity:1" fill="#f18584" d="M 144.5,287.5 C 145.675,287.281 146.675,287.614 147.5,288.5C 147.376,289.107 147.043,289.44 146.5,289.5C 145.833,288.833 145.167,288.167 144.5,287.5 Z"/></g>
<g><path style="opacity:1" fill="#f18686" d="M 204.5,284.5 C 205.209,283.596 206.209,283.263 207.5,283.5C 207.5,285.5 207.5,287.5 207.5,289.5C 207.028,287.469 206.028,285.802 204.5,284.5 Z"/></g>
<g><path style="opacity:1" fill="#f4a1a0" d="M 96.5,283.5 C 96.1667,286.167 95.8333,288.833 95.5,291.5C 94.254,288.707 94.5873,286.04 96.5,283.5 Z"/></g>
<g><path style="opacity:1" fill="#fbd9d9" d="M 175.5,282.5 C 175.283,287.23 175.617,291.897 176.5,296.5C 175.9,297.9 174.9,298.9 173.5,299.5C 175.838,291.185 172.838,287.518 164.5,288.5C 167.796,286.973 170.962,287.307 174,289.5C 174.186,286.964 174.686,284.631 175.5,282.5 Z"/></g>
<g><path style="opacity:1" fill="#ec5c5b" d="M 175.5,282.5 C 175.833,282.5 176.167,282.5 176.5,282.5C 176.765,286.853 177.265,291.187 178,295.5C 178.198,293.618 178.698,291.952 179.5,290.5C 178.599,294.241 179.932,296.241 183.5,296.5C 182.5,297.167 181.5,297.833 180.5,298.5C 178.938,298.267 177.605,297.6 176.5,296.5C 175.617,291.897 175.283,287.23 175.5,282.5 Z"/></g>
<g><path style="opacity:1" fill="#fcd8d7" d="M 135.5,286.5 C 136.239,286.369 136.906,286.536 137.5,287C 138.053,288.878 139.053,290.378 140.5,291.5C 140.166,294.188 140.832,296.521 142.5,298.5C 140.5,297.167 138.5,297.167 136.5,298.5C 137.473,296.932 137.64,295.265 137,293.5C 132.304,291.305 132.471,289.805 137.5,289C 136.619,288.292 135.953,287.458 135.5,286.5 Z"/></g>
<g><path style="opacity:1" fill="#fdebea" d="M 183.5,296.5 C 179.932,296.241 178.599,294.241 179.5,290.5C 180.919,289.549 182.585,289.216 184.5,289.5C 184.802,292.059 184.468,294.393 183.5,296.5 Z"/></g>
<g><path style="opacity:1" fill="#f6a9a7" d="M 213.5,284.5 C 214.677,286.679 215.677,289.013 216.5,291.5C 214.179,289.91 213.179,287.577 213.5,284.5 Z"/></g>
<g><path style="opacity:1" fill="#f39292" d="M 98.5,289.5 C 98.5,290.5 98.5,291.5 98.5,292.5C 97.209,292.737 96.209,292.404 95.5,291.5C 96.7777,291.218 97.7777,290.551 98.5,289.5 Z"/></g>
<g><path style="opacity:1" fill="#f7b0ae" d="M 109.5,288.5 C 109.5,290.5 109.5,292.5 109.5,294.5C 108.209,294.737 107.209,294.404 106.5,293.5C 108.028,292.198 109.028,290.531 109.5,288.5 Z"/></g>
<g><path style="opacity:1" fill="#f3a2a0" d="M 156.5,283.5 C 155.887,289.271 156.554,294.604 158.5,299.5C 157.791,300.404 156.791,300.737 155.5,300.5C 155.178,294.642 155.511,288.975 156.5,283.5 Z"/></g>
<g><path style="opacity:1" fill="#e63439" d="M 156.5,283.5 C 158.446,288.396 159.113,293.729 158.5,299.5C 156.554,294.604 155.887,289.271 156.5,283.5 Z"/></g>
<g><path style="opacity:1" fill="#ea4d4c" d="M 164.5,288.5 C 172.838,287.518 175.838,291.185 173.5,299.5C 172.504,299.586 171.671,299.252 171,298.5C 170.503,295.854 170.336,293.187 170.5,290.5C 168.585,290.216 166.919,290.549 165.5,291.5C 165.098,294.477 164.098,297.143 162.5,299.5C 161.362,296.696 161.195,293.696 162,290.5C 162.708,289.619 163.542,288.953 164.5,288.5 Z"/></g>
<g><path style="opacity:1" fill="#ea4b4a" d="M 204.5,284.5 C 206.028,285.802 207.028,287.469 207.5,289.5C 208.167,291.5 208.833,293.5 209.5,295.5C 207.856,295.714 206.356,295.38 205,294.5C 204.502,291.183 204.335,287.85 204.5,284.5 Z"/></g>
<g><path style="opacity:1" fill="#ec5553" d="M 115.5,285.5 C 116.5,285.5 117.5,285.5 118.5,285.5C 118.5,288.833 118.5,292.167 118.5,295.5C 119.833,295.5 121.167,295.5 122.5,295.5C 122.337,293.143 122.503,290.81 123,288.5C 123.689,287.643 124.522,286.977 125.5,286.5C 128.159,294.324 125.493,297.824 117.5,297C 114.875,294.804 113.875,291.97 114.5,288.5C 115.404,287.791 115.737,286.791 115.5,285.5 Z"/></g>
<g><path style="opacity:1" fill="#f7b9b9" d="M 146.5,289.5 C 144.852,291.456 144.185,293.789 144.5,296.5C 143.532,294.393 143.198,292.059 143.5,289.5C 144.5,289.5 145.5,289.5 146.5,289.5 Z"/></g>
<g><path style="opacity:1" fill="#f29395" d="M 165.5,291.5 C 165.5,294.5 165.5,297.5 165.5,300.5C 164.209,300.737 163.209,300.404 162.5,299.5C 164.098,297.143 165.098,294.477 165.5,291.5 Z"/></g>
<g><path style="opacity:1" fill="#e94443" d="M 178.5,281.5 C 178.5,283.5 178.5,285.5 178.5,287.5C 180.5,287.5 182.5,287.5 184.5,287.5C 185.833,288.167 186.833,289.167 187.5,290.5C 187.893,293.513 187.226,296.18 185.5,298.5C 183.716,299.72 182.05,299.72 180.5,298.5C 181.5,297.833 182.5,297.167 183.5,296.5C 184.468,294.393 184.802,292.059 184.5,289.5C 182.585,289.216 180.919,289.549 179.5,290.5C 178.698,291.952 178.198,293.618 178,295.5C 177.265,291.187 176.765,286.853 176.5,282.5C 176.842,281.662 177.508,281.328 178.5,281.5 Z"/></g>
<g><path style="opacity:1" fill="#ea4b4b" d="M 135.5,286.5 C 135.953,287.458 136.619,288.292 137.5,289C 132.471,289.805 132.304,291.305 137,293.5C 137.64,295.265 137.473,296.932 136.5,298.5C 134.076,298.808 131.743,298.474 129.5,297.5C 131.167,296.833 132.833,296.167 134.5,295.5C 133.086,294.376 131.586,293.376 130,292.5C 128.491,287.507 130.325,285.507 135.5,286.5 Z"/></g>
<g><path style="opacity:1" fill="#e94445" d="M 144.5,287.5 C 145.167,288.167 145.833,288.833 146.5,289.5C 145.5,289.5 144.5,289.5 143.5,289.5C 143.198,292.059 143.532,294.393 144.5,296.5C 145.398,297.158 146.398,297.824 147.5,298.5C 145.701,299.788 144.035,299.788 142.5,298.5C 140.832,296.521 140.166,294.188 140.5,291.5C 140.337,289.143 140.503,286.81 141,284.5C 141.414,284.043 141.914,283.709 142.5,283.5C 143.172,284.949 143.839,286.282 144.5,287.5 Z"/></g>
<g><path style="opacity:1" fill="#e94547" d="M 192.5,286.5 C 192.274,289.249 192.607,291.916 193.5,294.5C 194.958,295.782 196.292,295.782 197.5,294.5C 198.477,291.713 198.81,288.713 198.5,285.5C 199.5,285.5 200.5,285.5 201.5,285.5C 203.663,293.81 200.663,297.644 192.5,297C 189.806,294.347 188.973,291.18 190,287.5C 190.671,286.748 191.504,286.414 192.5,286.5 Z"/></g>
<g><path style="opacity:1" fill="#fbcecd" d="M 192.5,286.5 C 194.369,288.635 195.036,291.302 194.5,294.5C 195.5,294.5 196.5,294.5 197.5,294.5C 196.292,295.782 194.958,295.782 193.5,294.5C 192.607,291.916 192.274,289.249 192.5,286.5 Z"/></g>
<g><path style="opacity:1" fill="#f9b5b3" d="M 187.5,290.5 C 188.629,292.628 188.796,294.961 188,297.5C 187.329,298.252 186.496,298.586 185.5,298.5C 187.226,296.18 187.893,293.513 187.5,290.5 Z"/></g>
</svg>
